<svg width="143" height="69" viewBox="0 0 143 69" fill="none" xmlns="http://www.w3.org/2000/svg">
<rect x="1" y="13" width="133" height="55" stroke="black" stroke-width="2"/>
<rect x="9" y="1" width="133" height="55" fill="white" stroke="black" stroke-width="2"/>
<path d="M58.0965 28.5742H54.4734L54.4539 26.7871H57.618C58.1518 26.7871 58.6043 26.709 58.9754 26.5527C59.353 26.39 59.6395 26.1589 59.8348 25.8594C60.0301 25.5534 60.1277 25.1855 60.1277 24.7559C60.1277 24.2806 60.0366 23.8932 59.8543 23.5938C59.672 23.2943 59.3921 23.0762 59.0145 22.9395C58.6434 22.8027 58.1681 22.7344 57.5887 22.7344H55.2156V35H52.7645V20.7812H57.5887C58.3699 20.7812 59.0665 20.8561 59.6785 21.0059C60.297 21.1556 60.8211 21.39 61.2508 21.709C61.687 22.0215 62.0158 22.4186 62.2371 22.9004C62.465 23.3822 62.5789 23.9551 62.5789 24.6191C62.5789 25.2051 62.4389 25.7422 62.159 26.2305C61.879 26.7122 61.4656 27.1061 60.9188 27.4121C60.3719 27.7181 59.6915 27.9004 58.8777 27.959L58.0965 28.5742ZM57.9891 35H53.702L54.8055 33.0566H57.9891C58.5424 33.0566 59.0047 32.9655 59.3758 32.7832C59.7469 32.5944 60.0236 32.3372 60.2059 32.0117C60.3947 31.6797 60.4891 31.2923 60.4891 30.8496C60.4891 30.3874 60.4077 29.987 60.2449 29.6484C60.0822 29.3034 59.825 29.0397 59.4734 28.8574C59.1219 28.6686 58.6629 28.5742 58.0965 28.5742H55.3426L55.3621 26.7871H58.9461L59.5027 27.4609C60.284 27.487 60.9253 27.6595 61.4266 27.9785C61.9344 28.2975 62.312 28.7109 62.5594 29.2188C62.8068 29.7266 62.9305 30.2734 62.9305 30.8594C62.9305 31.7643 62.7319 32.5228 62.3348 33.1348C61.9441 33.7467 61.381 34.2122 60.6453 34.5312C59.9096 34.8438 59.0242 35 57.9891 35ZM65.9176 29.834V29.6094C65.9176 28.8477 66.0283 28.1413 66.2496 27.4902C66.471 26.8327 66.79 26.263 67.2066 25.7812C67.6298 25.293 68.1441 24.9154 68.7496 24.6484C69.3616 24.375 70.0517 24.2383 70.8199 24.2383C71.5947 24.2383 72.2848 24.375 72.8902 24.6484C73.5022 24.9154 74.0198 25.293 74.443 25.7812C74.8661 26.263 75.1884 26.8327 75.4098 27.4902C75.6311 28.1413 75.7418 28.8477 75.7418 29.6094V29.834C75.7418 30.5957 75.6311 31.3021 75.4098 31.9531C75.1884 32.6042 74.8661 33.1738 74.443 33.6621C74.0198 34.1439 73.5055 34.5215 72.9 34.7949C72.2945 35.0618 71.6077 35.1953 70.8395 35.1953C70.0647 35.1953 69.3714 35.0618 68.7594 34.7949C68.1539 34.5215 67.6396 34.1439 67.2164 33.6621C66.7932 33.1738 66.471 32.6042 66.2496 31.9531C66.0283 31.3021 65.9176 30.5957 65.9176 29.834ZM68.2711 29.6094V29.834C68.2711 30.3092 68.3199 30.7585 68.4176 31.1816C68.5152 31.6048 68.6682 31.9759 68.8766 32.2949C69.0849 32.6139 69.3518 32.8646 69.6773 33.0469C70.0029 33.2292 70.3902 33.3203 70.8395 33.3203C71.2757 33.3203 71.6533 33.2292 71.9723 33.0469C72.2978 32.8646 72.5647 32.6139 72.773 32.2949C72.9814 31.9759 73.1344 31.6048 73.232 31.1816C73.3362 30.7585 73.3883 30.3092 73.3883 29.834V29.6094C73.3883 29.1406 73.3362 28.6979 73.232 28.2812C73.1344 27.8581 72.9781 27.4837 72.7633 27.1582C72.5549 26.8327 72.288 26.5788 71.9625 26.3965C71.6435 26.2077 71.2626 26.1133 70.8199 26.1133C70.3772 26.1133 69.9931 26.2077 69.6676 26.3965C69.3486 26.5788 69.0849 26.8327 68.8766 27.1582C68.6682 27.4837 68.5152 27.8581 68.4176 28.2812C68.3199 28.6979 68.2711 29.1406 68.2711 29.6094ZM78.4652 29.834V29.6094C78.4652 28.8477 78.5759 28.1413 78.7973 27.4902C79.0186 26.8327 79.3376 26.263 79.7543 25.7812C80.1775 25.293 80.6918 24.9154 81.2973 24.6484C81.9092 24.375 82.5993 24.2383 83.3676 24.2383C84.1423 24.2383 84.8324 24.375 85.4379 24.6484C86.0499 24.9154 86.5674 25.293 86.9906 25.7812C87.4138 26.263 87.7361 26.8327 87.9574 27.4902C88.1788 28.1413 88.2895 28.8477 88.2895 29.6094V29.834C88.2895 30.5957 88.1788 31.3021 87.9574 31.9531C87.7361 32.6042 87.4138 33.1738 86.9906 33.6621C86.5674 34.1439 86.0531 34.5215 85.4477 34.7949C84.8422 35.0618 84.1553 35.1953 83.3871 35.1953C82.6124 35.1953 81.919 35.0618 81.307 34.7949C80.7016 34.5215 80.1872 34.1439 79.7641 33.6621C79.3409 33.1738 79.0186 32.6042 78.7973 31.9531C78.5759 31.3021 78.4652 30.5957 78.4652 29.834ZM80.8187 29.6094V29.834C80.8187 30.3092 80.8676 30.7585 80.9652 31.1816C81.0629 31.6048 81.2159 31.9759 81.4242 32.2949C81.6326 32.6139 81.8995 32.8646 82.225 33.0469C82.5505 33.2292 82.9379 33.3203 83.3871 33.3203C83.8233 33.3203 84.2009 33.2292 84.5199 33.0469C84.8454 32.8646 85.1124 32.6139 85.3207 32.2949C85.529 31.9759 85.682 31.6048 85.7797 31.1816C85.8839 30.7585 85.9359 30.3092 85.9359 29.834V29.6094C85.9359 29.1406 85.8839 28.6979 85.7797 28.2812C85.682 27.8581 85.5258 27.4837 85.3109 27.1582C85.1026 26.8327 84.8357 26.5788 84.5102 26.3965C84.1911 26.2077 83.8103 26.1133 83.3676 26.1133C82.9249 26.1133 82.5408 26.2077 82.2152 26.3965C81.8962 26.5788 81.6326 26.8327 81.4242 27.1582C81.2159 27.4837 81.0629 27.8581 80.9652 28.2812C80.8676 28.6979 80.8187 29.1406 80.8187 29.6094ZM93.8352 20V35H91.4719V20H93.8352ZM100.398 24.4336L95.798 29.5312L93.2785 32.1094L92.6633 30.1172L94.5676 27.7637L97.5559 24.4336H100.398ZM98.0637 35L94.6359 30.0391L96.1203 28.3887L100.788 35H98.0637Z" fill="black"/>
</svg>
